<svg xmlns="http://www.w3.org/2000/svg" width="366" height="512" viewBox="0 0 96.8 135" fill="red"><rect transform="scale(1 -1)" y="-135" width="96.8" height="135" ry="5.29" fill="#eee"/><path d="M20.632 67.692l27.76 33.792 27.72-33.792L48.392 33.9zm-.294-36.841L12.421 21.2l-7.928 9.651 7.928 9.651zM84.449 114l7.928-9.651-7.928-9.651-7.917 9.651z"/><path d="M16.867 14.915v2.355H7.983q.144-1.334.865-2.522.721-1.199 2.856-3.173 1.72-1.595 2.104-2.171.523-.783.523-1.55 0-.847-.459-1.298-.451-.459-1.252-.459-.793 0-1.261.478-.469.478-.541 1.587L8.296 7.91q.225-2.088 1.414-3.006 1.189-.91 2.973-.91 1.954 0 3.073 1.054 1.117 1.054 1.117 2.622 0 .892-.324 1.703-.316.802-1.009 1.687-.459.586-1.658 1.687-1.199 1.099-1.523 1.46-.316.361-.514.703zm63.096 105.55v-2.355h8.884q-.144 1.334-.865 2.522-.721 1.199-2.856 3.173-1.72 1.595-2.104 2.171-.523.783-.523 1.55 0 .847.459 1.298.451.459 1.252.459.793 0 1.261-.478.469-.478.541-1.587l2.522.252q-.225 2.088-1.414 3.006-1.189.91-2.973.91-1.954 0-3.073-1.054-1.117-1.054-1.117-2.622 0-.892.324-1.703.316-.802 1.009-1.687.459-.586 1.658-1.687 1.199-1.099 1.523-1.46.316-.361.514-.703z"/></svg>