<svg xmlns="http://www.w3.org/2000/svg" width="366" height="512" viewBox="0 0 96.8 135" fill="red"><rect transform="scale(1 -1)" y="-135" width="96.8" height="135" ry="5.29" fill="#eee"/><path d="M20.632 67.692l27.76 33.792 27.72-33.792L48.392 33.9zm-.294-36.841L12.421 21.2l-7.928 9.651 7.928 9.651zM84.449 114l7.928-9.651-7.928-9.651-7.917 9.651z"/><path d="M8.023 13.713l2.522-.261q.108.857.64 1.361.531.496 1.226.496.793 0 1.343-.64.549-.65.549-1.954 0-1.216-.549-1.82-.541-.613-1.414-.613-1.091 0-1.954.964l-2.054-.297 1.298-6.88h6.697V6.44h-4.776l-.396 2.238q.847-.424 1.737-.424 1.687 0 2.856 1.226 1.171 1.226 1.171 3.173 0 1.632-.947 2.906-1.289 1.754-3.574 1.754-1.837 0-2.989-.982-1.154-.982-1.379-2.639zm80.774 107.854l-2.522.261q-.108-.857-.64-1.361-.531-.496-1.226-.496-.793 0-1.343.64-.549.65-.549 1.954 0 1.216.549 1.82.541.613 1.414.613 1.091 0 1.954-.964l2.054.297-1.298 6.88h-6.697v-2.371h4.776l.396-2.238q-.847.424-1.737.424-1.687 0-2.856-1.226-1.171-1.226-1.171-3.173 0-1.632.947-2.906 1.289-1.754 3.574-1.754 1.837 0 2.989.982 1.154.982 1.379 2.639z"/></svg>