<svg xmlns="http://www.w3.org/2000/svg" width="366" height="512" viewBox="0 0 96.8 135" fill="red"><rect transform="scale(1 -1)" y="-135" width="96.8" height="135" ry="5.29" fill="#eee"/><path d="M20.632 67.692l27.76 33.792 27.72-33.792L48.392 33.9zm-.294-36.841L12.421 21.2l-7.928 9.651 7.928 9.651zM84.449 114l7.928-9.651-7.928-9.651-7.917 9.651z"/><path d="M16.61 7.182l-2.411.266q-.089-.743-.461-1.097-.372-.354-.964-.354-.787 0-1.337.708-.54.708-.681 2.952.93-1.097 2.312-1.097 1.558 0 2.657 1.186 1.115 1.186 1.115 3.067 0 1.984-1.168 3.198-1.168 1.204-3.001 1.204-1.968 0-3.231-1.522-1.266-1.532-1.266-5.002 0-3.559 1.319-5.15 1.319-1.574 3.428-1.574 1.478 0 2.444.831.974.823 1.238 2.394zm-5.642 5.428q0 1.212.558 1.87.558.654 1.274.654.69 0 1.15-.54.459-.54.461-1.771 0-1.266-.495-1.853-.495-.594-1.238-.594-.717 0-1.212.566-.495.558-.495 1.656zM80.26 128.308l2.411-.266q.089.743.461 1.097.372.354.964.354.787 0 1.337-.708.54-.708.681-2.952-.93 1.097-2.312 1.097-1.558 0-2.657-1.186-1.115-1.186-1.115-3.067 0-1.984 1.168-3.198 1.168-1.204 3.001-1.204 1.968 0 3.231 1.522 1.266 1.532 1.266 5.002 0 3.559-1.319 5.15-1.319 1.574-3.428 1.574-1.478 0-2.444-.831-.974-.823-1.238-2.394zm5.642-5.428q0-1.212-.558-1.87-.558-.654-1.274-.654-.69 0-1.15.54-.459.54-.461 1.771 0 1.266.495 1.853.495.594 1.238.594.717 0 1.212-.566.495-.558.495-1.656z"/></svg>