<svg xmlns="http://www.w3.org/2000/svg" width="366" height="512" viewBox="0 0 96.8 135" fill="red"><rect transform="scale(1 -1)" y="-135" width="96.8" height="135" ry="5.29" fill="#eee"/><path d="M20.632 67.692l27.76 33.792 27.72-33.792L48.392 33.9zm-.294-36.841L12.421 21.2l-7.928 9.651 7.928 9.651zM84.449 114l7.928-9.651-7.928-9.651-7.917 9.651z"/><path d="M18.988 18.523h-2.906l-1.154-3.006H9.651L8.56 18.523H5.738l5.144-13.21h2.822zm-4.91-5.227l-1.82-4.91-1.787 4.91zm63.814 103.831h2.906l1.154 3.006h5.277l1.091-3.006h2.822l-5.144 13.21h-2.822zm4.91 5.227l1.82 4.91 1.787-4.91z"/></svg>