<svg xmlns="http://www.w3.org/2000/svg" width="366" height="512" viewBox="0 0 96.8 135" fill="red"><rect transform="scale(1 -1)" y="-135" width="96.8" height="135" ry="5.29" fill="#eee"/><path d="M48.4 49.4c2.39-6.08 7.5-10.7 13.8-10.7 5.34 0 9.73 2.82 13.3 6.65 4.75 5.09 6.87 16.8-1.94 25.6l-25.2 26-25.2-26c-8.8-8.8-6.79-20.5-1.94-25.6 3.62-3.79 7.97-6.65 13.3-6.65 6.34 0 11.3 4.65 13.7 10.7M12.4 23.9c.607-1.55 1.91-2.73 3.52-2.73 1.36 0 2.47.718 3.38 1.69 1.21 1.29 1.75 4.26-.493 6.5l-6.39 6.6-6.39-6.6c-2.24-2.24-1.73-5.21-.493-6.5.919-.963 2.02-1.69 3.38-1.69 1.61 0 2.88 1.18 3.49 2.73M84.4 112c-.607 1.55-1.91 2.73-3.52 2.73-1.36 0-2.47-.718-3.38-1.69-1.21-1.29-1.75-4.26.493-6.5l6.39-6.6 6.39 6.6c2.24 2.24 1.73 5.21.493 6.5-.919.963-2.02 1.69-3.38 1.69-1.61 0-2.88-1.18-3.49-2.73"/><path d="M10.312 17.006H7.82V7.642Q6.457 8.916 4.605 9.528V7.264q.974-.318 2.116-1.204 1.141-.894 1.566-2.083h2.017zm5.806-13.054q1.886 0 2.952 1.345 1.266 1.592 1.266 5.281 0 3.674-1.274 5.297-1.053 1.327-2.936 1.327-1.886 0-3.05-1.451-1.159-1.46-1.159-5.199 0-3.657 1.274-5.281 1.053-1.327 2.936-1.327zm0 2.066q-.451 0-.805.292-.354.284-.549 1.027-.256.964-.256 3.247 0 2.283.23 3.149.23.85.576 1.133.354.284.805.284.451 0 .805-.284.354-.292.549-1.035.256-.956.256-3.231 0-2.275-.23-3.132-.23-.858-.584-1.141-.344-.292-.797-.292z"/><path d="M7.16 11.9H5.64V6.19q-.831.777-1.96 1.15V5.96q.594-.194 1.29-.734.696-.545.955-1.27h1.23zm3.54-7.96q1.15 0 1.8.82.772.971.772 3.22 0 2.24-.777 3.23-.642.809-1.79.809-1.15 0-1.86-.885-.707-.89-.707-3.17 0-2.23.777-3.22.642-.809 1.79-.809zm0 1.26q-.275 0-.491.178-.216.173-.335.626-.156.588-.156 1.98 0 1.392.14 1.92.14.518.351.691.216.173.491.173.275 0 .491-.173.216-.178.335-.631.156-.583.156-1.97 0-1.387-.14-1.91-.14-.523-.356-.696-.21-.178-.486-.178z" transform="matrix(-1.64 0 0 -1.64 98.3 138)"/></svg>