<svg xmlns="http://www.w3.org/2000/svg" width="366" height="512" viewBox="0 0 96.8 135" fill="red"><rect transform="scale(1 -1)" y="-135" width="96.8" height="135" ry="5.29" fill="#eee"/><path d="M48.4 49.4c2.39-6.08 7.5-10.7 13.8-10.7 5.34 0 9.73 2.82 13.3 6.65 4.75 5.09 6.87 16.8-1.94 25.6l-25.2 26-25.2-26c-8.8-8.8-6.79-20.5-1.94-25.6 3.62-3.79 7.97-6.65 13.3-6.65 6.34 0 11.3 4.65 13.7 10.7M12.4 23.9c.607-1.55 1.91-2.73 3.52-2.73 1.36 0 2.47.718 3.38 1.69 1.21 1.29 1.75 4.26-.493 6.5l-6.39 6.6-6.39-6.6c-2.24-2.24-1.73-5.21-.493-6.5.919-.963 2.02-1.69 3.38-1.69 1.61 0 2.88 1.18 3.49 2.73M84.4 112c-.607 1.55-1.91 2.73-3.52 2.73-1.36 0-2.47-.718-3.38-1.69-1.21-1.29-1.75-4.26.493-6.5l6.39-6.6 6.39 6.6c2.24 2.24 1.73 5.21.493 6.5-.919.963-2.02 1.69-3.38 1.69-1.61 0-2.88-1.18-3.49-2.73"/><path d="M8.148 13.529l2.411-.292q.115.92.62 1.407.505.487 1.222.487.769 0 1.292-.584.531-.584.531-1.574 0-.938-.505-1.487-.505-.549-1.23-.549-.477 0-1.141.185l.274-2.034q1.009.027 1.54-.433.531-.469.531-1.238 0-.654-.389-1.045-.389-.389-1.035-.389-.638 0-1.089.443-.451.443-.549 1.292L8.335 7.33q.239-1.178.717-1.87.487-.708 1.345-1.105.868-.407 1.935-.407 1.837 0 2.936 1.168.912.956.912 2.165 0 1.706-1.87 2.722 1.115.239 1.771 1.071.672.831.672 2.001 0 1.706-1.248 2.919-1.248 1.204-3.1 1.204-1.755 0-2.919-1.009-1.159-1.018-1.345-2.657zm80.574 108.432l-2.411.292q-.115-.92-.62-1.407-.505-.487-1.222-.487-.769 0-1.292.584-.531.584-.531 1.574 0 .938.505 1.487.505.549 1.23.549.477 0 1.141-.185l-.274 2.034q-1.009-.027-1.54.433-.531.469-.531 1.238 0 .654.389 1.045.389.389 1.035.389.638 0 1.089-.443.451-.443.549-1.292l2.296.389q-.239 1.178-.717 1.87-.487.708-1.345 1.105-.868.407-1.935.407-1.837 0-2.936-1.168-.912-.956-.912-2.165 0-1.706 1.87-2.722-1.115-.239-1.771-1.071-.672-.831-.672-2.001 0-1.706 1.248-2.919 1.248-1.204 3.1-1.204 1.755 0 2.919 1.009 1.159 1.018 1.345 2.657z"/></svg>