<svg xmlns="http://www.w3.org/2000/svg" width="366" height="512" viewBox="0 0 96.8 135" fill="red"><rect transform="scale(1 -1)" y="-135" width="96.8" height="135" ry="5.29" fill="#eee"/><path d="M48.4 49.4c2.39-6.08 7.5-10.7 13.8-10.7 5.34 0 9.73 2.82 13.3 6.65 4.75 5.09 6.87 16.8-1.94 25.6l-25.2 26-25.2-26c-8.8-8.8-6.79-20.5-1.94-25.6 3.62-3.79 7.97-6.65 13.3-6.65 6.34 0 11.3 4.65 13.7 10.7M12.4 23.9c.607-1.55 1.91-2.73 3.52-2.73 1.36 0 2.47.718 3.38 1.69 1.21 1.29 1.75 4.26-.493 6.5l-6.39 6.6-6.39-6.6c-2.24-2.24-1.73-5.21-.493-6.5.919-.963 2.02-1.69 3.38-1.69 1.61 0 2.88 1.18 3.49 2.73M84.4 112c-.607 1.55-1.91 2.73-3.52 2.73-1.36 0-2.47-.718-3.38-1.69-1.21-1.29-1.75-4.26.493-6.5l6.39-6.6 6.39 6.6c2.24 2.24 1.73 5.21.493 6.5-.919.963-2.02 1.69-3.38 1.69-1.61 0-2.88-1.18-3.49-2.73"/><path d="M8.023 13.713l2.522-.261q.108.857.64 1.361.531.496 1.226.496.793 0 1.343-.64.549-.65.549-1.954 0-1.216-.549-1.82-.541-.613-1.414-.613-1.091 0-1.954.964l-2.054-.297 1.298-6.88h6.697V6.44h-4.776l-.396 2.238q.847-.424 1.737-.424 1.687 0 2.856 1.226 1.171 1.226 1.171 3.173 0 1.632-.947 2.906-1.289 1.754-3.574 1.754-1.837 0-2.989-.982-1.154-.982-1.379-2.639zm80.774 107.854l-2.522.261q-.108-.857-.64-1.361-.531-.496-1.226-.496-.793 0-1.343.64-.549.65-.549 1.954 0 1.216.549 1.82.541.613 1.414.613 1.091 0 1.954-.964l2.054.297-1.298 6.88h-6.697v-2.371h4.776l.396-2.238q-.847.424-1.737.424-1.687 0-2.856-1.226-1.171-1.226-1.171-3.173 0-1.632.947-2.906 1.289-1.754 3.574-1.754 1.837 0 2.989.982 1.154.982 1.379 2.639z"/></svg>