<svg xmlns="http://www.w3.org/2000/svg" width="366" height="512" viewBox="0 0 96.8 135" fill="red"><rect transform="scale(1 -1)" y="-135" width="96.8" height="135" ry="5.29" fill="#eee"/><path d="M48.4 49.4c2.39-6.08 7.5-10.7 13.8-10.7 5.34 0 9.73 2.82 13.3 6.65 4.75 5.09 6.87 16.8-1.94 25.6l-25.2 26-25.2-26c-8.8-8.8-6.79-20.5-1.94-25.6 3.62-3.79 7.97-6.65 13.3-6.65 6.34 0 11.3 4.65 13.7 10.7M12.4 23.9c.607-1.55 1.91-2.73 3.52-2.73 1.36 0 2.47.718 3.38 1.69 1.21 1.29 1.75 4.26-.493 6.5l-6.39 6.6-6.39-6.6c-2.24-2.24-1.73-5.21-.493-6.5.919-.963 2.02-1.69 3.38-1.69 1.61 0 2.88 1.18 3.49 2.73M84.4 112c-.607 1.55-1.91 2.73-3.52 2.73-1.36 0-2.47-.718-3.38-1.69-1.21-1.29-1.75-4.26.493-6.5l6.39-6.6 6.39 6.6c2.24 2.24 1.73 5.21.493 6.5-.919.963-2.02 1.69-3.38 1.69-1.61 0-2.88-1.18-3.49-2.73"/><path d="M10.372 9.97q-.964-.407-1.407-1.115-.433-.717-.433-1.566 0-1.451 1.009-2.394 1.018-.946 2.886-.946 1.853 0 2.87.946 1.027.946 1.027 2.394 0 .902-.469 1.61-.469.699-1.319 1.071 1.079.433 1.637 1.266.566.831.566 1.919 0 1.804-1.15 2.919-1.141 1.123-3.05 1.123-1.771 0-2.952-.93-1.389-1.097-1.389-3.001 0-1.053.522-1.935.522-.886 1.64-1.363zm.513-2.509q0 .743.417 1.159.425.417 1.123.417.708 0 1.133-.417.425-.425.425-1.168 0-.699-.425-1.115-.417-.425-1.105-.425-.717 0-1.141.425-.425.425-.425 1.123zm-.23 5.56q0 1.027.522 1.602.531.576 1.319.576.769 0 1.274-.549.505-.558.505-1.602 0-.912-.513-1.46-.513-.558-1.301-.558-.912 0-1.363.628-.443.628-.443 1.363zM86.508 125.52q.964.407 1.407 1.115.433.717.433 1.566 0 1.451-1.009 2.394-1.018.946-2.886.946-1.853 0-2.87-.946-1.027-.946-1.027-2.394 0-.902.469-1.61.469-.699 1.319-1.071-1.079-.433-1.637-1.266-.566-.831-.566-1.919 0-1.804 1.15-2.919 1.141-1.123 3.05-1.123 1.771 0 2.952.93 1.389 1.097 1.389 3.001 0 1.053-.522 1.935-.522.886-1.64 1.363zm-.513 2.509q0-.743-.417-1.159-.425-.417-1.123-.417-.708 0-1.133.417-.425.425-.425 1.168 0 .699.425 1.115.417.425 1.105.425.717 0 1.141-.425.425-.425.425-1.123zm.23-5.56q0-1.027-.522-1.602-.531-.576-1.319-.576-.769 0-1.274.549-.505.558-.505 1.602 0 .912.513 1.46.513.558 1.301.558.912 0 1.363-.628.443-.628.443-1.363z"/></svg>