<svg xmlns="http://www.w3.org/2000/svg" width="366" height="512" viewBox="0 0 96.8 135" fill="red"><rect transform="scale(1 -1)" y="-135" width="96.8" height="135" ry="5.29" fill="#eee"/><path d="M48.4 49.4c2.39-6.08 7.5-10.7 13.8-10.7 5.34 0 9.73 2.82 13.3 6.65 4.75 5.09 6.87 16.8-1.94 25.6l-25.2 26-25.2-26c-8.8-8.8-6.79-20.5-1.94-25.6 3.62-3.79 7.97-6.65 13.3-6.65 6.34 0 11.3 4.65 13.7 10.7M12.4 23.9c.607-1.55 1.91-2.73 3.52-2.73 1.36 0 2.47.718 3.38 1.69 1.21 1.29 1.75 4.26-.493 6.5l-6.39 6.6-6.39-6.6c-2.24-2.24-1.73-5.21-.493-6.5.919-.963 2.02-1.69 3.38-1.69 1.61 0 2.88 1.18 3.49 2.73M84.4 112c-.607 1.55-1.91 2.73-3.52 2.73-1.36 0-2.47-.718-3.38-1.69-1.21-1.29-1.75-4.26.493-6.5l6.39-6.6 6.39 6.6c2.24 2.24 1.73 5.21.493 6.5-.919.963-2.02 1.69-3.38 1.69-1.61 0-2.88-1.18-3.49-2.73"/><path d="M16.563 14.45q.882.631 1.92 1.003l-.882 1.695q-.543-.162-1.061-.446-.113-.057-1.59-1.052-1.165.51-2.58.51-2.73 0-4.29-1.605-1.545-1.605-1.545-4.53 0-2.91 1.56-4.515 1.56-1.62 4.215-1.62 2.64 0 4.185 1.62 1.545 1.605 1.545 4.515 0 1.545-.429 2.7-.324.891-1.037 1.725zm-1.92-1.352q.462-.543.689-1.311.234-.77.234-1.77 0-2.055-.906-3.075-.906-1.02-2.37-1.02-1.466 0-2.385 1.02-.906 1.02-.906 3.075 0 2.085.906 3.12.915 1.027 2.31 1.027.518 0 .98-.169-.729-.477-1.481-.744l.672-1.368q1.182.405 2.265 1.213zM80.3 120.65q-.882-.632-1.92-1.004l.882-1.695q.543.162 1.06.445.113.057 1.59 1.052 1.166-.51 2.58-.51 2.73 0 4.29 1.605 1.545 1.605 1.545 4.53 0 2.91-1.56 4.515-1.56 1.62-4.215 1.62-2.64 0-4.185-1.62-1.545-1.605-1.545-4.515 0-1.545.429-2.7.324-.891 1.037-1.725zm1.92 1.351q-.462.543-.689 1.311-.234.769-.234 1.77 0 2.055.906 3.075.906 1.02 2.37 1.02 1.465 0 2.385-1.02.906-1.02.906-3.075 0-2.085-.906-3.12-.915-1.028-2.31-1.028-.517 0-.98.169.729.477 1.481.744l-.672 1.368q-1.182-.405-2.265-1.213z"/></svg>