<svg xmlns="http://www.w3.org/2000/svg" width="366" height="512" viewBox="0 0 96.8 135" fill="red"><rect transform="scale(1 -1)" y="-135" width="96.8" height="135" ry="5.29" fill="#eee"/><path d="M48.4 49.4c2.39-6.08 7.5-10.7 13.8-10.7 5.34 0 9.73 2.82 13.3 6.65 4.75 5.09 6.87 16.8-1.94 25.6l-25.2 26-25.2-26c-8.8-8.8-6.79-20.5-1.94-25.6 3.62-3.79 7.97-6.65 13.3-6.65 6.34 0 11.3 4.65 13.7 10.7M12.4 23.9c.607-1.55 1.91-2.73 3.52-2.73 1.36 0 2.47.718 3.38 1.69 1.21 1.29 1.75 4.26-.493 6.5l-6.39 6.6-6.39-6.6c-2.24-2.24-1.73-5.21-.493-6.5.919-.963 2.02-1.69 3.38-1.69 1.61 0 2.88 1.18 3.49 2.73M84.4 112c-.607 1.55-1.91 2.73-3.52 2.73-1.36 0-2.47-.718-3.38-1.69-1.21-1.29-1.75-4.26.493-6.5l6.39-6.6 6.39 6.6c2.24 2.24 1.73 5.21.493 6.5-.919.963-2.02 1.69-3.38 1.69-1.61 0-2.88-1.18-3.49-2.73"/><path d="M16.867 14.915v2.355H7.983q.144-1.334.865-2.522.721-1.199 2.856-3.173 1.72-1.595 2.104-2.171.523-.783.523-1.55 0-.847-.459-1.298-.451-.459-1.252-.459-.793 0-1.261.478-.469.478-.541 1.587L8.296 7.91q.225-2.088 1.414-3.006 1.189-.91 2.973-.91 1.954 0 3.073 1.054 1.117 1.054 1.117 2.622 0 .892-.324 1.703-.316.802-1.009 1.687-.459.586-1.658 1.687-1.199 1.099-1.523 1.46-.316.361-.514.703zm63.096 105.55v-2.355h8.884q-.144 1.334-.865 2.522-.721 1.199-2.856 3.173-1.72 1.595-2.104 2.171-.523.783-.523 1.55 0 .847.459 1.298.451.459 1.252.459.793 0 1.261-.478.469-.478.541-1.587l2.522.252q-.225 2.088-1.414 3.006-1.189.91-2.973.91-1.954 0-3.073-1.054-1.117-1.054-1.117-2.622 0-.892.324-1.703.316-.802 1.009-1.687.459-.586 1.658-1.687 1.199-1.099 1.523-1.46.316-.361.514-.703z"/></svg>