<svg xmlns="http://www.w3.org/2000/svg" width="366" height="512" viewBox="0 0 96.8 135" fill="red"><rect transform="scale(1 -1)" y="-135" width="96.8" height="135" ry="5.29" fill="#eee"/><path d="M48.4 49.4c2.39-6.08 7.5-10.7 13.8-10.7 5.34 0 9.73 2.82 13.3 6.65 4.75 5.09 6.87 16.8-1.94 25.6l-25.2 26-25.2-26c-8.8-8.8-6.79-20.5-1.94-25.6 3.62-3.79 7.97-6.65 13.3-6.65 6.34 0 11.3 4.65 13.7 10.7M12.4 23.9c.607-1.55 1.91-2.73 3.52-2.73 1.36 0 2.47.718 3.38 1.69 1.21 1.29 1.75 4.26-.493 6.5l-6.39 6.6-6.39-6.6c-2.24-2.24-1.73-5.21-.493-6.5.919-.963 2.02-1.69 3.38-1.69 1.61 0 2.88 1.18 3.49 2.73M84.4 112c-.607 1.55-1.91 2.73-3.52 2.73-1.36 0-2.47-.718-3.38-1.69-1.21-1.29-1.75-4.26.493-6.5l6.39-6.6 6.39 6.6c2.24 2.24 1.73 5.21.493 6.5-.919.963-2.02 1.69-3.38 1.69-1.61 0-2.88-1.18-3.49-2.73"/><path d="M16.61 7.182l-2.411.266q-.089-.743-.461-1.097-.372-.354-.964-.354-.787 0-1.337.708-.54.708-.681 2.952.93-1.097 2.312-1.097 1.558 0 2.657 1.186 1.115 1.186 1.115 3.067 0 1.984-1.168 3.198-1.168 1.204-3.001 1.204-1.968 0-3.231-1.522-1.266-1.532-1.266-5.002 0-3.559 1.319-5.15 1.319-1.574 3.428-1.574 1.478 0 2.444.831.974.823 1.238 2.394zm-5.642 5.428q0 1.212.558 1.87.558.654 1.274.654.69 0 1.15-.54.459-.54.461-1.771 0-1.266-.495-1.853-.495-.594-1.238-.594-.717 0-1.212.566-.495.558-.495 1.656zM80.26 128.308l2.411-.266q.089.743.461 1.097.372.354.964.354.787 0 1.337-.708.54-.708.681-2.952-.93 1.097-2.312 1.097-1.558 0-2.657-1.186-1.115-1.186-1.115-3.067 0-1.984 1.168-3.198 1.168-1.204 3.001-1.204 1.968 0 3.231 1.522 1.266 1.532 1.266 5.002 0 3.559-1.319 5.15-1.319 1.574-3.428 1.574-1.478 0-2.444-.831-.974-.823-1.238-2.394zm5.642-5.428q0-1.212-.558-1.87-.558-.654-1.274-.654-.69 0-1.15.54-.459.54-.461 1.771 0 1.266.495 1.853.495.594 1.238.594.717 0 1.212-.566.495-.558.495-1.656z"/></svg>