<svg xmlns="http://www.w3.org/2000/svg" width="366" height="512" viewBox="0 0 96.8 135" fill="red"><rect transform="scale(1 -1)" y="-135" width="96.8" height="135" ry="5.29" fill="#eee"/><path d="M20.632 67.692l27.76 33.792 27.72-33.792L48.392 33.9zm-.294-36.841L12.421 21.2l-7.928 9.651 7.928 9.651zM84.449 114l7.928-9.651-7.928-9.651-7.917 9.651z"/><path d="M8.148 13.529l2.411-.292q.115.92.62 1.407.505.487 1.222.487.769 0 1.292-.584.531-.584.531-1.574 0-.938-.505-1.487-.505-.549-1.23-.549-.477 0-1.141.185l.274-2.034q1.009.027 1.54-.433.531-.469.531-1.238 0-.654-.389-1.045-.389-.389-1.035-.389-.638 0-1.089.443-.451.443-.549 1.292L8.335 7.33q.239-1.178.717-1.87.487-.708 1.345-1.105.868-.407 1.935-.407 1.837 0 2.936 1.168.912.956.912 2.165 0 1.706-1.87 2.722 1.115.239 1.771 1.071.672.831.672 2.001 0 1.706-1.248 2.919-1.248 1.204-3.1 1.204-1.755 0-2.919-1.009-1.159-1.018-1.345-2.657zm80.574 108.432l-2.411.292q-.115-.92-.62-1.407-.505-.487-1.222-.487-.769 0-1.292.584-.531.584-.531 1.574 0 .938.505 1.487.505.549 1.23.549.477 0 1.141-.185l-.274 2.034q-1.009-.027-1.54.433-.531.469-.531 1.238 0 .654.389 1.045.389.389 1.035.389.638 0 1.089-.443.451-.443.549-1.292l2.296.389q-.239 1.178-.717 1.87-.487.708-1.345 1.105-.868.407-1.935.407-1.837 0-2.936-1.168-.912-.956-.912-2.165 0-1.706 1.87-2.722-1.115-.239-1.771-1.071-.672-.831-.672-2.001 0-1.706 1.248-2.919 1.248-1.204 3.1-1.204 1.755 0 2.919 1.009 1.159 1.018 1.345 2.657z"/></svg>