<svg xmlns="http://www.w3.org/2000/svg" width="366" height="512" viewBox="0 0 96.8 135" fill="red"><rect transform="scale(1 -1)" y="-135" width="96.8" height="135" ry="5.29" fill="#eee"/><path d="M20.632 67.692l27.76 33.792 27.72-33.792L48.392 33.9zm-.294-36.841L12.421 21.2l-7.928 9.651 7.928 9.651zM84.449 114l7.928-9.651-7.928-9.651-7.917 9.651z"/><path d="M8.387 14.054l2.411-.266q.089.735.461 1.089.372.354.982.354.769 0 1.31-.708.54-.708.69-2.936-.938 1.089-2.345 1.089-1.532 0-2.64-1.178-1.105-1.186-1.105-3.083 0-1.968 1.168-3.182 1.178-1.212 2.985-1.212 1.968 0 3.231 1.532Q16.8 7.076 16.8 10.572q0 3.559-1.319 5.133-1.319 1.574-3.428 1.574-1.522 0-2.46-.805-.938-.813-1.204-2.427zm5.625-5.428q0-1.204-.558-1.87-.549-.664-1.274-.664-.69 0-1.15.549-.451.54-.451 1.771 0 1.256.495 1.853.495.584 1.238.584.717 0 1.204-.566.495-.566.495-1.656zm74.481 112.81l-2.411.266q-.089-.735-.461-1.089-.372-.354-.982-.354-.769 0-1.31.708-.54.708-.69 2.936.938-1.089 2.345-1.089 1.532 0 2.64 1.178 1.105 1.186 1.105 3.083 0 1.968-1.168 3.182-1.178 1.212-2.985 1.212-1.968 0-3.231-1.532-1.266-1.522-1.266-5.018 0-3.559 1.319-5.133 1.319-1.574 3.428-1.574 1.522 0 2.46.805.938.813 1.204 2.427zm-5.625 5.428q0 1.204.558 1.87.549.664 1.274.664.69 0 1.15-.549.451-.54.451-1.771 0-1.256-.495-1.853-.495-.584-1.238-.584-.717 0-1.204.566-.495.566-.495 1.656z"/></svg>