<svg xmlns="http://www.w3.org/2000/svg" width="366" height="512" viewBox="0 0 96.8 135" fill="red"><rect transform="scale(1 -1)" y="-135" width="96.8" height="135" ry="5.29" fill="#eee"/><path d="M20.632 67.692l27.76 33.792 27.72-33.792L48.392 33.9zm-.294-36.841L12.421 21.2l-7.928 9.651 7.928 9.651zM84.449 114l7.928-9.651-7.928-9.651-7.917 9.651z"/><path d="M16.563 14.45q.882.631 1.92 1.003l-.882 1.695q-.543-.162-1.061-.446-.113-.057-1.59-1.052-1.165.51-2.58.51-2.73 0-4.29-1.605-1.545-1.605-1.545-4.53 0-2.91 1.56-4.515 1.56-1.62 4.215-1.62 2.64 0 4.185 1.62 1.545 1.605 1.545 4.515 0 1.545-.429 2.7-.324.891-1.037 1.725zm-1.92-1.352q.462-.543.689-1.311.234-.77.234-1.77 0-2.055-.906-3.075-.906-1.02-2.37-1.02-1.466 0-2.385 1.02-.906 1.02-.906 3.075 0 2.085.906 3.12.915 1.027 2.31 1.027.518 0 .98-.169-.729-.477-1.481-.744l.672-1.368q1.182.405 2.265 1.213zM80.3 120.65q-.882-.632-1.92-1.004l.882-1.695q.543.162 1.06.445.113.057 1.59 1.052 1.166-.51 2.58-.51 2.73 0 4.29 1.605 1.545 1.605 1.545 4.53 0 2.91-1.56 4.515-1.56 1.62-4.215 1.62-2.64 0-4.185-1.62-1.545-1.605-1.545-4.515 0-1.545.429-2.7.324-.891 1.037-1.725zm1.92 1.351q-.462.543-.689 1.311-.234.769-.234 1.77 0 2.055.906 3.075.906 1.02 2.37 1.02 1.465 0 2.385-1.02.906-1.02.906-3.075 0-2.085-.906-3.12-.915-1.028-2.31-1.028-.517 0-.98.169.729.477 1.481.744l-.672 1.368q-1.182-.405-2.265-1.213z"/></svg>