<svg xmlns:xlink="http://www.w3.org/1999/xlink" xmlns="http://www.w3.org/2000/svg" width="366" height="512" viewBox="0 0 96.8 135" fill="red"><rect transform="scale(1 -1)" y="-135" width="96.8" height="135" ry="5.29" fill="#eee"/><path d="M22.058 85.048c1.856.005 3.487-1.261 3.939-3.058a4.06 4.06 0 0 0-2.011-4.558c1.16-1.821 3.273-2.796 5.415-2.487a5.75 5.75 0 0 1 4.855 5.76v5.355c0 .56.455 1.016 1.015 1.016h5.081v-6.259c.068-4.76-3.641-8.735-8.401-8.973a8.59 8.59 0 0 0-8.223 5.426c-.519-.231-1.079-.351-1.642-.35-.133.007-.267.02-.399.04a10.59 10.59 0 0 1 10.424-7.14 10.88 10.88 0 0 1 10.282 10.996v6.271h5.081V67.572a14.28 14.28 0 0 0-2.13-2.725c-1.026-1.028-2.202-1.892-3.499-2.558a14.18 14.18 0 0 0-13.923.459 14.22 14.22 0 0 0-6.843 12.138v2.178c-1.975.509-3.273 2.416-3.011 4.439s1.987 3.546 4.022 3.546zm53.776-7.973v-1.737c.087-7.711-5.879-14.161-13.566-14.637-2.927-.139-5.831.643-8.306 2.237a14.1 14.1 0 0 0-2.392 1.916c-.819.818-1.535 1.725-2.13 2.725v19.516h5.081v-6.259c-.067-5.831 4.462-10.674 10.282-10.996 2.963-.115 5.831 1.013 7.925 3.106a10.8 10.8 0 0 1 2.499 4.034c-.132-.02-.265-.034-.399-.04a4.02 4.02 0 0 0-1.642.353 8.71 8.71 0 0 0-1.904-2.915c-1.666-1.678-3.963-2.582-6.331-2.523-4.76.24-8.473 4.201-8.401 8.973v6.259h5.081c.56 0 1.015-.455 1.015-1.016v-5.355a5.75 5.75 0 0 1 4.843-5.771 5.63 5.63 0 0 1 4.701 1.571 5.74 5.74 0 0 1 .728.914 4.05 4.05 0 0 0-1.928 4.796c.594 1.856 2.428 3.023 4.355 2.785a4.04 4.04 0 0 0 3.546-3.76 4.07 4.07 0 0 0-3.046-4.189zm-8.211-27.548a13.2 13.2 0 0 0-14.042-11.091 13.13 13.13 0 0 0-12.138 13.09v8.306a12.32 12.32 0 0 1 1.404.64 15.65 15.65 0 0 1 3.986 2.916l.701.751v-7.033c.004-4.308 2.606-8.199 6.581-9.853 3.986-1.654 8.568-.741 11.626 2.309a11.02 11.02 0 0 1 .326.356 4.13 4.13 0 0 0-1.559 1.321c-.07-.076-.143-.17-.213-.234a8.52 8.52 0 0 0-6.105-2.523 8.64 8.64 0 0 0-8.627 8.627v7.033c.224-.253.446-.497.69-.741.838-.828 1.761-1.571 2.749-2.201.526-.338 1.072-.644 1.63-.914v-3.165c.001-2.332 1.226-4.474 3.225-5.664a6.6 6.6 0 0 1 6.521-.129l.054.032c-1.009 1.559-.833 3.606.427 4.962a4.07 4.07 0 0 0 4.915.806 4.05 4.05 0 0 0 1.987-4.57 4.07 4.07 0 0 0-3.939-3.058c-.057 0-.109.014-.164.016zm-1.19 39.567H30.495c-.312 0-.608.144-.8.39a1.01 1.01 0 0 0-.184.871l1.523 6.093c.113.452.519.77.985.77h32.963c.466 0 .872-.318.985-.77l1.523-6.093a1.02 1.02 0 0 0-.184-.871c-.193-.246-.488-.39-.8-.39zm-30.835-70.55c-.96 0-1.807.155-2.54.466-.555.23-1.065.583-1.53 1.06a5.54 5.54 0 0 0-1.09 1.61c-.359.813-.538 1.82-.538 3.02l.018-.006c0 1.873.517 3.347 1.55 4.42 1.027 1.067 2.416 1.6 4.17 1.6 1.727 0 3.107-.537 4.14-1.61s1.55-2.56 1.55-4.46c0-1.92-.524-3.417-1.57-4.49-1.04-1.073-2.427-1.61-4.16-1.61zM25.4 18.7l.002 7.594c0 .955-.11 1.584-.329 1.89-.217.3-.59.45-1.12.45-.523 0-.913-.212-1.17-.634-.171-.28-.27-.757-.297-1.43l-2.24.257c.005 1.261.321 2.217.947 2.87.627.647 1.52.971 2.68.971.989 0 1.785-.206 2.39-.618a3.16 3.16 0 0 0 1.25-1.65c.171-.527.257-1.277.257-2.25V18.7H25.4zm17.7 0v11.8l2.38-.02v-3.56l1.93-1.97 3.24 5.52h3.07l-4.67-7.19 4.43-4.58h-3.2l-4.8 5.23V18.7H43.1zm11.9 0v11.8l8.96-.04v-1.98h-6.58v-3.2h5.91V23.3h-5.91v-2.61h6.35V18.7H55zm11 0v11.8l2.378-.048v-4.91h.482c.549 0 .949.045 1.2.136a1.84 1.84 0 0 1 .715.49c.225.24.64.817 1.25 1.73l1.72 2.56h2.84l-1.44-2.3c-.569-.915-1.023-1.551-1.36-1.91s-.756-.687-1.27-.987c1.034-.147 1.811-.507 2.33-1.08.519-.58.779-1.31.779-2.19 0-.693-.171-1.31-.514-1.85s-.797-.911-1.37-1.12c-.567-.214-1.48-.321-2.74-.321h-5zm-30.383 1.874c.978 0 1.761.332 2.35.996.594.667.891 1.673.891 3.02 0 1.36-.305 2.383-.915 3.07-.607.68-1.384 1.02-2.33 1.02s-1.725-.343-2.34-1.03-.923-1.697-.923-3.03l-.002-.006c0-1.353.3-2.363.899-3.03.6-.673 1.39-1.01 2.37-1.01zm32.778.149h1.85l1.73.04c.385.065.682.22.891.466.214.241.321.559.321.955 0 .353-.08.648-.241.883a1.29 1.29 0 0 1-.666.498c-.283.097-1 .145-2.14.145h-1.76l.015-2.987zm-7.133 84.263c-1.727 0-3.106.537-4.14 1.61s-1.55 2.56-1.55 4.46c0 1.92.523 3.417 1.57 4.49 1.04 1.073 2.427 1.61 4.16 1.61.96 0 1.807-.155 2.54-.466.555-.23 1.065-.583 1.53-1.06a5.53 5.53 0 0 0 1.09-1.61c.359-.813.538-1.82.538-3.02l-.018.006c0-1.873-.516-3.347-1.55-4.42-1.027-1.067-2.417-1.6-4.17-1.6zM30.8 105l-2.378.048v4.91h-.482c-.549 0-.949-.045-1.2-.136a1.84 1.84 0 0 1-.715-.49c-.225-.24-.64-.817-1.25-1.73l-1.72-2.56h-2.84l1.44 2.3c.569.915 1.023 1.551 1.36 1.91s.756.687 1.27.987c-1.034.147-1.811.507-2.33 1.08-.519.58-.779 1.31-.779 2.19 0 .693.171 1.31.514 1.85s.797.911 1.37 1.12c.567.214 1.48.321 2.74.321h5V105zm11 0l-8.96.04v1.98h6.58v3.2h-5.91v1.98h5.91v2.61h-6.35v1.99h8.73V105zm11.9 0l-2.38.02v3.56l-1.93 1.97-3.24-5.52h-3.07l4.67 7.19-4.43 4.58h3.2l4.8-5.23v5.23h2.38V105zm19.227.032c-.989 0-1.785.206-2.39.618a3.16 3.16 0 0 0-1.25 1.65c-.171.527-.257 1.276-.257 2.25V117h2.37l-.002-7.594c0-.955.11-1.584.329-1.89.217-.3.59-.45 1.12-.45.523 0 .913.211 1.17.634.171.28.27.757.297 1.43l2.24-.257c-.005-1.261-.321-2.217-.947-2.87-.627-.647-1.52-.971-2.68-.971zm-11.64 1.988c.945 0 1.724.343 2.34 1.03s.923 1.697.923 3.03l.002.006c0 1.353-.299 2.364-.899 3.03-.602.673-1.392 1.01-2.37 1.01s-1.762-.332-2.35-.996c-.594-.667-.891-1.673-.891-3.02 0-1.36.305-2.383.915-3.07.609-.68 1.386-1.02 2.33-1.02zm-34.627 4.77h1.76l-.015 2.986h-1.85c-.961 0-1.537-.013-1.73-.04-.385-.065-.682-.22-.891-.466s-.321-.559-.321-.955c0-.353.08-.648.241-.883a1.29 1.29 0 0 1 .666-.498c.283-.097 1-.144 2.14-.144z"/></svg>