<svg xmlns="http://www.w3.org/2000/svg" width="366" height="512" viewBox="0 0 96.8 135"><rect transform="scale(1 -1)" y="-135" width="96.8" height="135" ry="5.29" fill="#eee"/><path d="M14.1 34.7c.57.551.912.891 1.93.849 1.5-.062 2.9-.881 3.68-2.17 1.34-2.22.608-4.45-.82-5.77l-5.83-6.19a.86.86 0 0 0-1.16 0l-5.92 6.19c-1.39 1.29-1.98 3.43-.821 5.59.736 1.37 2.14 2.3 3.69 2.36 1.01.039 1.41-.3 2-.847.154-.144.407-.036.407.176v1.04c0 .559-.146 1.11-.424 1.6l-.537.939c-.116.204.031.457.265.457h3.83c.235 0 .382-.253.265-.457l-.537-.939a3.23 3.23 0 0 1-.424-1.6v-1.05c0-.207.249-.311.398-.167M54.6 85.5c2.18 2.11 3.49 3.41 7.4 3.25 5.75-.236 11.1-3.37 14.1-8.3 5.13-8.5 2.33-17-3.14-22.1l-22.3-23.7a3.29 3.29 0 0 0-4.44 0l-22.6 23.7c-5.31 4.93-7.58 13.1-3.14 21.4 2.82 5.25 8.17 8.78 14.1 9.01 3.87.148 5.4-1.15 7.64-3.24a.93.93 0 0 1 1.56.672l.001 3.97c0 2.14-.559 4.24-1.62 6.1l-2.05 3.59c-.444.779.118 1.75 1.01 1.75h14.7c.897 0 1.46-.968 1.01-1.75l-2.05-3.59c-1.06-1.86-1.62-3.96-1.62-6.1v-4.01a.9.9 0 0 1 1.52-.64M82.8 101c-.57-.551-.912-.891-1.93-.849-1.5.062-2.9.881-3.68 2.17-1.34 2.22-.608 4.45.82 5.77l5.83 6.19a.86.86 0 0 0 1.16 0l5.92-6.19c1.39-1.29 1.98-3.43.821-5.59-.736-1.37-2.14-2.3-3.69-2.36-1.01-.039-1.41.3-2 .847-.154.144-.407.036-.407-.176v-1.04c0-.559.146-1.11.424-1.6l.537-.939c.116-.204-.031-.457-.265-.457h-3.83c-.235 0-.382.253-.265.457l.537.939a3.23 3.23 0 0 1 .424 1.6v1.05c0 .207-.249.311-.398.167"/><path d="M10.312 17.006H7.82V7.642Q6.457 8.916 4.605 9.528V7.264q.974-.318 2.116-1.204 1.141-.894 1.566-2.083h2.017zm5.806-13.054q1.886 0 2.952 1.345 1.266 1.592 1.266 5.281 0 3.674-1.274 5.297-1.053 1.327-2.936 1.327-1.886 0-3.05-1.451-1.159-1.46-1.159-5.199 0-3.657 1.274-5.281 1.053-1.327 2.936-1.327zm0 2.066q-.451 0-.805.292-.354.284-.549 1.027-.256.964-.256 3.247 0 2.283.23 3.149.23.85.576 1.133.354.284.805.284.451 0 .805-.284.354-.292.549-1.035.256-.956.256-3.231 0-2.275-.23-3.132-.23-.858-.584-1.141-.344-.292-.797-.292z"/><path d="M7.16 11.9H5.64V6.19q-.831.777-1.96 1.15V5.96q.594-.194 1.29-.734.696-.545.955-1.27h1.23zm3.54-7.96q1.15 0 1.8.82.772.971.772 3.22 0 2.24-.777 3.23-.642.809-1.79.809-1.15 0-1.86-.885-.707-.89-.707-3.17 0-2.23.777-3.22.642-.809 1.79-.809zm0 1.26q-.275 0-.491.178-.216.173-.335.626-.156.588-.156 1.98 0 1.392.14 1.92.14.518.351.691.216.173.491.173.275 0 .491-.173.216-.178.335-.631.156-.583.156-1.97 0-1.387-.14-1.91-.14-.523-.356-.696-.21-.178-.486-.178z" transform="matrix(-1.64 0 0 -1.64 98.3 138)"/></svg>