<svg xmlns="http://www.w3.org/2000/svg" width="366" height="512" viewBox="0 0 96.8 135" fill="red"><rect transform="scale(1 -1)" y="-135" width="96.8" height="135" ry="5.29" fill="#eee"/><path d="M20.632 67.692l27.76 33.792 27.72-33.792L48.392 33.9zm-.294-36.841L12.421 21.2l-7.928 9.651 7.928 9.651zM84.449 114l7.928-9.651-7.928-9.651-7.917 9.651z"/><path d="M13.126 17.253v-2.655H7.715v-2.221l5.728-8.383h2.121v8.383h1.64v2.221h-1.64v2.655zm0-4.876V7.868l-3.039 4.509zm70.578 105.75v2.655h5.411v2.221l-5.728 8.383h-2.121v-8.383h-1.64v-2.221h1.64v-2.655zm0 4.876v4.509l3.039-4.509z"/></svg>