<svg xmlns="http://www.w3.org/2000/svg" width="366" height="512" viewBox="0 0 96.8 135" fill="red"><rect transform="scale(1 -1)" y="-135" width="96.8" height="135" ry="5.29" fill="#eee"/><path d="M20.632 67.692l27.76 33.792 27.72-33.792L48.392 33.9zm-.294-36.841L12.421 21.2l-7.928 9.651 7.928 9.651zM84.449 114l7.928-9.651-7.928-9.651-7.917 9.651z"/><path d="M8.059 6.493V4.096h8.823v1.87q-1.091 1.073-2.227 3.077-1.129 2.006-1.717 4.267-.587 2.261-.578 4.029H9.878q.064-2.788 1.146-5.695 1.091-2.907 2.907-5.185zm80.762 122.174v2.397h-8.823v-1.87q1.091-1.073 2.227-3.077 1.129-2.006 1.717-4.267.587-2.261.578-4.029h2.482q-.064 2.788-1.146 5.695-1.091 2.907-2.907 5.185z"/></svg>