<svg xmlns="http://www.w3.org/2000/svg" width="366" height="512" viewBox="0 0 96.8 135" fill="red"><rect transform="scale(1 -1)" y="-135" width="96.8" height="135" ry="5.29" fill="#eee"/><path d="M20.632 67.692l27.76 33.792 27.72-33.792L48.392 33.9zm-.294-36.841L12.421 21.2l-7.928 9.651 7.928 9.651zM84.449 114l7.928-9.651-7.928-9.651-7.917 9.651z"/><path d="M10.372 9.97q-.964-.407-1.407-1.115-.433-.717-.433-1.566 0-1.451 1.009-2.394 1.018-.946 2.886-.946 1.853 0 2.87.946 1.027.946 1.027 2.394 0 .902-.469 1.61-.469.699-1.319 1.071 1.079.433 1.637 1.266.566.831.566 1.919 0 1.804-1.15 2.919-1.141 1.123-3.05 1.123-1.771 0-2.952-.93-1.389-1.097-1.389-3.001 0-1.053.522-1.935.522-.886 1.64-1.363zm.513-2.509q0 .743.417 1.159.425.417 1.123.417.708 0 1.133-.417.425-.425.425-1.168 0-.699-.425-1.115-.417-.425-1.105-.425-.717 0-1.141.425-.425.425-.425 1.123zm-.23 5.56q0 1.027.522 1.602.531.576 1.319.576.769 0 1.274-.549.505-.558.505-1.602 0-.912-.513-1.46-.513-.558-1.301-.558-.912 0-1.363.628-.443.628-.443 1.363zM86.508 125.52q.964.407 1.407 1.115.433.717.433 1.566 0 1.451-1.009 2.394-1.018.946-2.886.946-1.853 0-2.87-.946-1.027-.946-1.027-2.394 0-.902.469-1.61.469-.699 1.319-1.071-1.079-.433-1.637-1.266-.566-.831-.566-1.919 0-1.804 1.15-2.919 1.141-1.123 3.05-1.123 1.771 0 2.952.93 1.389 1.097 1.389 3.001 0 1.053-.522 1.935-.522.886-1.64 1.363zm-.513 2.509q0-.743-.417-1.159-.425-.417-1.123-.417-.708 0-1.133.417-.425.425-.425 1.168 0 .699.425 1.115.417.425 1.105.425.717 0 1.141-.425.425-.425.425-1.123zm.23-5.56q0-1.027-.522-1.602-.531-.576-1.319-.576-.769 0-1.274.549-.505.558-.505 1.602 0 .912.513 1.46.513.558 1.301.558.912 0 1.363-.628.443-.628.443-1.363z"/></svg>