<svg xmlns="http://www.w3.org/2000/svg" width="366" height="512" viewBox="0 0 96.8 135" fill="red"><rect transform="scale(1 -1)" y="-135" width="96.8" height="135" ry="5.29" fill="#eee"/><path d="M20.632 67.692l27.76 33.792 27.72-33.792L48.392 33.9zm-.294-36.841L12.421 21.2l-7.928 9.651 7.928 9.651zM84.449 114l7.928-9.651-7.928-9.651-7.917 9.651z"/><path d="M13.942 3.951h2.608v8.216q0 1.61-.284 2.476-.38 1.133-1.381 1.82-1 .681-2.64.681-1.919 0-2.952-1.071-1.035-1.079-1.045-3.165l2.476-.284q.044 1.115.328 1.574.425.699 1.292.699.876 0 1.238-.495.362-.505.362-2.083zm68.926 127.538H80.26v-8.216q0-1.61.284-2.476.38-1.133 1.381-1.82 1-.681 2.64-.681 1.919 0 2.952 1.071 1.035 1.079 1.045 3.165l-2.476.284q-.044-1.115-.328-1.574-.425-.699-1.292-.699-.876 0-1.238.495-.362.505-.362 2.083z"/></svg>