<svg xmlns="http://www.w3.org/2000/svg" width="366" height="512" viewBox="0 0 96.8 135" fill="red"><rect transform="scale(1 -1)" y="-135" width="96.8" height="135" ry="5.29" fill="#eee"/><path d="M20.632 67.692l27.76 33.792 27.72-33.792L48.392 33.9zm-.294-36.841L12.421 21.2l-7.928 9.651 7.928 9.651zM84.449 114l7.928-9.651-7.928-9.651-7.917 9.651z"/><path d="M6.463 17.203V3.993h2.672v5.862l5.394-5.862h3.591l-4.977 5.144 5.244 8.066H14.93l-3.624-6.196-2.171 2.204v3.991zm83.954 100.924v13.21h-2.672v-5.862l-5.394 5.862H78.76l4.977-5.144-5.244-8.066h3.457l3.624 6.196 2.171-2.204v-3.991z"/></svg>