<svg xmlns="http://www.w3.org/2000/svg" width="366" height="512" viewBox="0 0 96.8 135" fill="red"><rect transform="scale(1 -1)" y="-135" width="96.8" height="135" ry="5.29" fill="#eee"/><path d="M48.4 49.4c2.39-6.08 7.5-10.7 13.8-10.7 5.34 0 9.73 2.82 13.3 6.65 4.75 5.09 6.87 16.8-1.94 25.6l-25.2 26-25.2-26c-8.8-8.8-6.79-20.5-1.94-25.6 3.62-3.79 7.97-6.65 13.3-6.65 6.34 0 11.3 4.65 13.7 10.7M12.4 23.9c.607-1.55 1.91-2.73 3.52-2.73 1.36 0 2.47.718 3.38 1.69 1.21 1.29 1.75 4.26-.493 6.5l-6.39 6.6-6.39-6.6c-2.24-2.24-1.73-5.21-.493-6.5.919-.963 2.02-1.69 3.38-1.69 1.61 0 2.88 1.18 3.49 2.73M84.4 112c-.607 1.55-1.91 2.73-3.52 2.73-1.36 0-2.47-.718-3.38-1.69-1.21-1.29-1.75-4.26.493-6.5l6.39-6.6 6.39 6.6c2.24 2.24 1.73 5.21.493 6.5-.919.963-2.02 1.69-3.38 1.69-1.61 0-2.88-1.18-3.49-2.73"/><path d="M8.387 14.054l2.411-.266q.089.735.461 1.089.372.354.982.354.769 0 1.31-.708.54-.708.69-2.936-.938 1.089-2.345 1.089-1.532 0-2.64-1.178-1.105-1.186-1.105-3.083 0-1.968 1.168-3.182 1.178-1.212 2.985-1.212 1.968 0 3.231 1.532Q16.8 7.076 16.8 10.572q0 3.559-1.319 5.133-1.319 1.574-3.428 1.574-1.522 0-2.46-.805-.938-.813-1.204-2.427zm5.625-5.428q0-1.204-.558-1.87-.549-.664-1.274-.664-.69 0-1.15.549-.451.54-.451 1.771 0 1.256.495 1.853.495.584 1.238.584.717 0 1.204-.566.495-.566.495-1.656zm74.481 112.81l-2.411.266q-.089-.735-.461-1.089-.372-.354-.982-.354-.769 0-1.31.708-.54.708-.69 2.936.938-1.089 2.345-1.089 1.532 0 2.64 1.178 1.105 1.186 1.105 3.083 0 1.968-1.168 3.182-1.178 1.212-2.985 1.212-1.968 0-3.231-1.532-1.266-1.522-1.266-5.018 0-3.559 1.319-5.133 1.319-1.574 3.428-1.574 1.522 0 2.46.805.938.813 1.204 2.427zm-5.625 5.428q0 1.204.558 1.87.549.664 1.274.664.69 0 1.15-.549.451-.54.451-1.771 0-1.256-.495-1.853-.495-.584-1.238-.584-.717 0-1.204.566-.495.566-.495 1.656z"/></svg>