<svg xmlns="http://www.w3.org/2000/svg" width="366" height="512" viewBox="0 0 96.8 135"><rect transform="scale(1 -1)" y="-135" width="96.8" height="135" ry="5.29" fill="#eee"/><path d="M70 60.2c-3.53-1.64-6.82-1.68-9.81-.951 2.44-2.89 3.84-6.68 3.62-10.8-.418-7.86-6.96-14.3-14.8-14.6-8.81-.336-16.1 6.7-16.1 15.4 0 3.8 1.37 7.27 3.65 9.96-2.99-.726-6.29-.687-9.81.951-5.43 2.52-9.2 7.86-9.28 13.8-.11 8.63 6.85 15.7 15.4 15.7 4.16 0 7.92-1.65 10.7-4.32v4.55c0 2.18-.569 4.33-1.65 6.22l-2.08 3.65a1.19 1.19 0 0 0 1.03 1.78h14.9a1.19 1.19 0 0 0 1.03-1.78l-2.08-3.65a12.58 12.58 0 0 1-1.65-6.22v-4.55c2.78 2.67 6.54 4.32 10.7 4.32 8.6 0 15.6-7.03 15.4-15.7-.077-5.98-3.85-11.3-9.28-13.8M18 27.9c-.906-.421-1.75-.431-2.52-.244a3.95 3.95 0 0 0 .931-2.77 4.01 4.01 0 0 0-3.81-3.75c-2.26-.086-4.12 1.72-4.12 3.97a3.95 3.95 0 0 0 .937 2.56 3.71 3.71 0 0 0-2.52.244c-1.39.648-2.36 2.02-2.38 3.56-.028 2.22 1.76 4.02 3.97 4.02a3.96 3.96 0 0 0 2.75-1.11v1.17c0 .561-.146 1.11-.425 1.6l-.535.937c-.116.204.031.457.265.457h3.83c.234 0 .381-.253.265-.457l-.535-.937a3.23 3.23 0 0 1-.425-1.6v-1.17a3.95 3.95 0 0 0 2.75 1.11c2.21 0 4-1.81 3.97-4.02-.02-1.54-.99-2.91-2.38-3.56M78.8 108c.906.421 1.75.431 2.52.244a3.95 3.95 0 0 0-.931 2.77 4.01 4.01 0 0 0 3.81 3.75c2.26.086 4.12-1.72 4.12-3.97a3.95 3.95 0 0 0-.937-2.56 3.71 3.71 0 0 0 2.52-.244c1.39-.648 2.36-2.02 2.38-3.56.028-2.22-1.76-4.02-3.97-4.02a3.96 3.96 0 0 0-2.75 1.11v-1.17c0-.561.146-1.11.425-1.6l.535-.937c.116-.204-.031-.457-.265-.457h-3.83c-.234 0-.381.253-.265.457l.535.937a3.23 3.23 0 0 1 .425 1.6v1.17a3.95 3.95 0 0 0-2.75-1.11c-2.21 0-4 1.81-3.97 4.02.02 1.54.99 2.91 2.38 3.56"/><path d="M10.312 17.006H7.82V7.642Q6.457 8.916 4.605 9.528V7.264q.974-.318 2.116-1.204 1.141-.894 1.566-2.083h2.017zm5.806-13.054q1.886 0 2.952 1.345 1.266 1.592 1.266 5.281 0 3.674-1.274 5.297-1.053 1.327-2.936 1.327-1.886 0-3.05-1.451-1.159-1.46-1.159-5.199 0-3.657 1.274-5.281 1.053-1.327 2.936-1.327zm0 2.066q-.451 0-.805.292-.354.284-.549 1.027-.256.964-.256 3.247 0 2.283.23 3.149.23.85.576 1.133.354.284.805.284.451 0 .805-.284.354-.292.549-1.035.256-.956.256-3.231 0-2.275-.23-3.132-.23-.858-.584-1.141-.344-.292-.797-.292z"/><path d="M7.16 11.9H5.64V6.19q-.831.777-1.96 1.15V5.96q.594-.194 1.29-.734.696-.545.955-1.27h1.23zm3.54-7.96q1.15 0 1.8.82.772.971.772 3.22 0 2.24-.777 3.23-.642.809-1.79.809-1.15 0-1.86-.885-.707-.89-.707-3.17 0-2.23.777-3.22.642-.809 1.79-.809zm0 1.26q-.275 0-.491.178-.216.173-.335.626-.156.588-.156 1.98 0 1.392.14 1.92.14.518.351.691.216.173.491.173.275 0 .491-.173.216-.178.335-.631.156-.583.156-1.97 0-1.387-.14-1.91-.14-.523-.356-.696-.21-.178-.486-.178z" transform="matrix(-1.64 0 0 -1.64 98.3 138)"/></svg>