<svg xmlns="http://www.w3.org/2000/svg" width="366" height="512" viewBox="0 0 96.8 135"><rect transform="scale(1 -1)" y="-135" width="96.8" height="135" ry="5.29" fill="#eee"/><path d="M14.1 34.7c.57.551.912.891 1.93.849 1.5-.062 2.9-.881 3.68-2.17 1.34-2.22.608-4.45-.82-5.77l-5.83-6.19a.86.86 0 0 0-1.16 0l-5.92 6.19c-1.39 1.29-1.98 3.43-.821 5.59.736 1.37 2.14 2.3 3.69 2.36 1.01.039 1.41-.3 2-.847.154-.144.407-.036.407.176v1.04c0 .559-.146 1.11-.424 1.6l-.537.939c-.116.204.031.457.265.457h3.83c.235 0 .382-.253.265-.457l-.537-.939a3.23 3.23 0 0 1-.424-1.6v-1.05c0-.207.249-.311.398-.167M54.6 85.5c2.18 2.11 3.49 3.41 7.4 3.25 5.75-.236 11.1-3.37 14.1-8.3 5.13-8.5 2.33-17-3.14-22.1l-22.3-23.7a3.29 3.29 0 0 0-4.44 0l-22.6 23.7c-5.31 4.93-7.58 13.1-3.14 21.4 2.82 5.25 8.17 8.78 14.1 9.01 3.87.148 5.4-1.15 7.64-3.24a.93.93 0 0 1 1.56.672l.001 3.97c0 2.14-.559 4.24-1.62 6.1l-2.05 3.59c-.444.779.118 1.75 1.01 1.75h14.7c.897 0 1.46-.968 1.01-1.75l-2.05-3.59c-1.06-1.86-1.62-3.96-1.62-6.1v-4.01a.9.9 0 0 1 1.52-.64M82.8 101c-.57-.551-.912-.891-1.93-.849-1.5.062-2.9.881-3.68 2.17-1.34 2.22-.608 4.45.82 5.77l5.83 6.19a.86.86 0 0 0 1.16 0l5.92-6.19c1.39-1.29 1.98-3.43.821-5.59-.736-1.37-2.14-2.3-3.69-2.36-1.01-.039-1.41.3-2 .847-.154.144-.407.036-.407-.176v-1.04c0-.559.146-1.11.424-1.6l.537-.939c.116-.204-.031-.457-.265-.457h-3.83c-.235 0-.382.253-.265.457l.537.939a3.23 3.23 0 0 1 .424 1.6v1.05c0 .207-.249.311-.398.167"/><path d="M16.867 14.915v2.355H7.983q.144-1.334.865-2.522.721-1.199 2.856-3.173 1.72-1.595 2.104-2.171.523-.783.523-1.55 0-.847-.459-1.298-.451-.459-1.252-.459-.793 0-1.261.478-.469.478-.541 1.587L8.296 7.91q.225-2.088 1.414-3.006 1.189-.91 2.973-.91 1.954 0 3.073 1.054 1.117 1.054 1.117 2.622 0 .892-.324 1.703-.316.802-1.009 1.687-.459.586-1.658 1.687-1.199 1.099-1.523 1.46-.316.361-.514.703zm63.096 105.55v-2.355h8.884q-.144 1.334-.865 2.522-.721 1.199-2.856 3.173-1.72 1.595-2.104 2.171-.523.783-.523 1.55 0 .847.459 1.298.451.459 1.252.459.793 0 1.261-.478.469-.478.541-1.587l2.522.252q-.225 2.088-1.414 3.006-1.189.91-2.973.91-1.954 0-3.073-1.054-1.117-1.054-1.117-2.622 0-.892.324-1.703.316-.802 1.009-1.687.459-.586 1.658-1.687 1.199-1.099 1.523-1.46.316-.361.514-.703z"/></svg>