<svg xmlns="http://www.w3.org/2000/svg" width="366" height="512" viewBox="0 0 96.8 135"><rect transform="scale(1 -1)" y="-135" width="96.8" height="135" ry="5.29" fill="#eee"/><path d="M14.1 34.7c.57.551.912.891 1.93.849 1.5-.062 2.9-.881 3.68-2.17 1.34-2.22.608-4.45-.82-5.77l-5.83-6.19a.86.86 0 0 0-1.16 0l-5.92 6.19c-1.39 1.29-1.98 3.43-.821 5.59.736 1.37 2.14 2.3 3.69 2.36 1.01.039 1.41-.3 2-.847.154-.144.407-.036.407.176v1.04c0 .559-.146 1.11-.424 1.6l-.537.939c-.116.204.031.457.265.457h3.83c.235 0 .382-.253.265-.457l-.537-.939a3.23 3.23 0 0 1-.424-1.6v-1.05c0-.207.249-.311.398-.167M54.6 85.5c2.18 2.11 3.49 3.41 7.4 3.25 5.75-.236 11.1-3.37 14.1-8.3 5.13-8.5 2.33-17-3.14-22.1l-22.3-23.7a3.29 3.29 0 0 0-4.44 0l-22.6 23.7c-5.31 4.93-7.58 13.1-3.14 21.4 2.82 5.25 8.17 8.78 14.1 9.01 3.87.148 5.4-1.15 7.64-3.24a.93.93 0 0 1 1.56.672l.001 3.97c0 2.14-.559 4.24-1.62 6.1l-2.05 3.59c-.444.779.118 1.75 1.01 1.75h14.7c.897 0 1.46-.968 1.01-1.75l-2.05-3.59c-1.06-1.86-1.62-3.96-1.62-6.1v-4.01a.9.9 0 0 1 1.52-.64M82.8 101c-.57-.551-.912-.891-1.93-.849-1.5.062-2.9.881-3.68 2.17-1.34 2.22-.608 4.45.82 5.77l5.83 6.19a.86.86 0 0 0 1.16 0l5.92-6.19c1.39-1.29 1.98-3.43.821-5.59-.736-1.37-2.14-2.3-3.69-2.36-1.01-.039-1.41.3-2 .847-.154.144-.407.036-.407-.176v-1.04c0-.559.146-1.11.424-1.6l.537-.939c.116-.204-.031-.457-.265-.457h-3.83c-.235 0-.382.253-.265.457l.537.939a3.23 3.23 0 0 1 .424 1.6v1.05c0 .207-.249.311-.398.167"/><path d="M10.372 9.97q-.964-.407-1.407-1.115-.433-.717-.433-1.566 0-1.451 1.009-2.394 1.018-.946 2.886-.946 1.853 0 2.87.946 1.027.946 1.027 2.394 0 .902-.469 1.61-.469.699-1.319 1.071 1.079.433 1.637 1.266.566.831.566 1.919 0 1.804-1.15 2.919-1.141 1.123-3.05 1.123-1.771 0-2.952-.93-1.389-1.097-1.389-3.001 0-1.053.522-1.935.522-.886 1.64-1.363zm.513-2.509q0 .743.417 1.159.425.417 1.123.417.708 0 1.133-.417.425-.425.425-1.168 0-.699-.425-1.115-.417-.425-1.105-.425-.717 0-1.141.425-.425.425-.425 1.123zm-.23 5.56q0 1.027.522 1.602.531.576 1.319.576.769 0 1.274-.549.505-.558.505-1.602 0-.912-.513-1.46-.513-.558-1.301-.558-.912 0-1.363.628-.443.628-.443 1.363zM86.508 125.52q.964.407 1.407 1.115.433.717.433 1.566 0 1.451-1.009 2.394-1.018.946-2.886.946-1.853 0-2.87-.946-1.027-.946-1.027-2.394 0-.902.469-1.61.469-.699 1.319-1.071-1.079-.433-1.637-1.266-.566-.831-.566-1.919 0-1.804 1.15-2.919 1.141-1.123 3.05-1.123 1.771 0 2.952.93 1.389 1.097 1.389 3.001 0 1.053-.522 1.935-.522.886-1.64 1.363zm-.513 2.509q0-.743-.417-1.159-.425-.417-1.123-.417-.708 0-1.133.417-.425.425-.425 1.168 0 .699.425 1.115.417.425 1.105.425.717 0 1.141-.425.425-.425.425-1.123zm.23-5.56q0-1.027-.522-1.602-.531-.576-1.319-.576-.769 0-1.274.549-.505.558-.505 1.602 0 .912.513 1.46.513.558 1.301.558.912 0 1.363-.628.443-.628.443-1.363z"/></svg>