<svg xmlns="http://www.w3.org/2000/svg" width="366" height="512" viewBox="0 0 96.8 135"><rect transform="scale(1 -1)" y="-135" width="96.8" height="135" ry="5.29" fill="#eee"/><path d="M14.1 34.7c.57.551.912.891 1.93.849 1.5-.062 2.9-.881 3.68-2.17 1.34-2.22.608-4.45-.82-5.77l-5.83-6.19a.86.86 0 0 0-1.16 0l-5.92 6.19c-1.39 1.29-1.98 3.43-.821 5.59.736 1.37 2.14 2.3 3.69 2.36 1.01.039 1.41-.3 2-.847.154-.144.407-.036.407.176v1.04c0 .559-.146 1.11-.424 1.6l-.537.939c-.116.204.031.457.265.457h3.83c.235 0 .382-.253.265-.457l-.537-.939a3.23 3.23 0 0 1-.424-1.6v-1.05c0-.207.249-.311.398-.167M54.6 85.5c2.18 2.11 3.49 3.41 7.4 3.25 5.75-.236 11.1-3.37 14.1-8.3 5.13-8.5 2.33-17-3.14-22.1l-22.3-23.7a3.29 3.29 0 0 0-4.44 0l-22.6 23.7c-5.31 4.93-7.58 13.1-3.14 21.4 2.82 5.25 8.17 8.78 14.1 9.01 3.87.148 5.4-1.15 7.64-3.24a.93.93 0 0 1 1.56.672l.001 3.97c0 2.14-.559 4.24-1.62 6.1l-2.05 3.59c-.444.779.118 1.75 1.01 1.75h14.7c.897 0 1.46-.968 1.01-1.75l-2.05-3.59c-1.06-1.86-1.62-3.96-1.62-6.1v-4.01a.9.9 0 0 1 1.52-.64M82.8 101c-.57-.551-.912-.891-1.93-.849-1.5.062-2.9.881-3.68 2.17-1.34 2.22-.608 4.45.82 5.77l5.83 6.19a.86.86 0 0 0 1.16 0l5.92-6.19c1.39-1.29 1.98-3.43.821-5.59-.736-1.37-2.14-2.3-3.69-2.36-1.01-.039-1.41.3-2 .847-.154.144-.407.036-.407-.176v-1.04c0-.559.146-1.11.424-1.6l.537-.939c.116-.204-.031-.457-.265-.457h-3.83c-.235 0-.382.253-.265.457l.537.939a3.23 3.23 0 0 1 .424 1.6v1.05c0 .207-.249.311-.398.167"/><path d="M16.563 14.45q.882.631 1.92 1.003l-.882 1.695q-.543-.162-1.061-.446-.113-.057-1.59-1.052-1.165.51-2.58.51-2.73 0-4.29-1.605-1.545-1.605-1.545-4.53 0-2.91 1.56-4.515 1.56-1.62 4.215-1.62 2.64 0 4.185 1.62 1.545 1.605 1.545 4.515 0 1.545-.429 2.7-.324.891-1.037 1.725zm-1.92-1.352q.462-.543.689-1.311.234-.77.234-1.77 0-2.055-.906-3.075-.906-1.02-2.37-1.02-1.466 0-2.385 1.02-.906 1.02-.906 3.075 0 2.085.906 3.12.915 1.027 2.31 1.027.518 0 .98-.169-.729-.477-1.481-.744l.672-1.368q1.182.405 2.265 1.213zM80.3 120.65q-.882-.632-1.92-1.004l.882-1.695q.543.162 1.06.445.113.057 1.59 1.052 1.166-.51 2.58-.51 2.73 0 4.29 1.605 1.545 1.605 1.545 4.53 0 2.91-1.56 4.515-1.56 1.62-4.215 1.62-2.64 0-4.185-1.62-1.545-1.605-1.545-4.515 0-1.545.429-2.7.324-.891 1.037-1.725zm1.92 1.351q-.462.543-.689 1.311-.234.769-.234 1.77 0 2.055.906 3.075.906 1.02 2.37 1.02 1.465 0 2.385-1.02.906-1.02.906-3.075 0-2.085-.906-3.12-.915-1.028-2.31-1.028-.517 0-.98.169.729.477 1.481.744l-.672 1.368q-1.182-.405-2.265-1.213z"/></svg>