<svg xmlns="http://www.w3.org/2000/svg" width="366" height="512" viewBox="0 0 96.8 135"><rect transform="scale(1 -1)" y="-135" width="96.8" height="135" ry="5.29" fill="#eee"/><path d="M70 60.2c-3.53-1.64-6.82-1.68-9.81-.951 2.44-2.89 3.84-6.68 3.62-10.8-.418-7.86-6.96-14.3-14.8-14.6-8.81-.336-16.1 6.7-16.1 15.4 0 3.8 1.37 7.27 3.65 9.96-2.99-.726-6.29-.687-9.81.951-5.43 2.52-9.2 7.86-9.28 13.8-.11 8.63 6.85 15.7 15.4 15.7 4.16 0 7.92-1.65 10.7-4.32v4.55c0 2.18-.569 4.33-1.65 6.22l-2.08 3.65a1.19 1.19 0 0 0 1.03 1.78h14.9a1.19 1.19 0 0 0 1.03-1.78l-2.08-3.65a12.58 12.58 0 0 1-1.65-6.22v-4.55c2.78 2.67 6.54 4.32 10.7 4.32 8.6 0 15.6-7.03 15.4-15.7-.077-5.98-3.85-11.3-9.28-13.8M18 27.9c-.906-.421-1.75-.431-2.52-.244a3.95 3.95 0 0 0 .931-2.77 4.01 4.01 0 0 0-3.81-3.75c-2.26-.086-4.12 1.72-4.12 3.97a3.95 3.95 0 0 0 .937 2.56 3.71 3.71 0 0 0-2.52.244c-1.39.648-2.36 2.02-2.38 3.56-.028 2.22 1.76 4.02 3.97 4.02a3.96 3.96 0 0 0 2.75-1.11v1.17c0 .561-.146 1.11-.425 1.6l-.535.937c-.116.204.031.457.265.457h3.83c.234 0 .381-.253.265-.457l-.535-.937a3.23 3.23 0 0 1-.425-1.6v-1.17a3.95 3.95 0 0 0 2.75 1.11c2.21 0 4-1.81 3.97-4.02-.02-1.54-.99-2.91-2.38-3.56M78.8 108c.906.421 1.75.431 2.52.244a3.95 3.95 0 0 0-.931 2.77 4.01 4.01 0 0 0 3.81 3.75c2.26.086 4.12-1.72 4.12-3.97a3.95 3.95 0 0 0-.937-2.56 3.71 3.71 0 0 0 2.52-.244c1.39-.648 2.36-2.02 2.38-3.56.028-2.22-1.76-4.02-3.97-4.02a3.96 3.96 0 0 0-2.75 1.11v-1.17c0-.561.146-1.11.425-1.6l.535-.937c.116-.204-.031-.457-.265-.457h-3.83c-.234 0-.381.253-.265.457l.535.937a3.23 3.23 0 0 1 .425 1.6v1.17a3.95 3.95 0 0 0-2.75-1.11c-2.21 0-4 1.81-3.97 4.02.02 1.54.99 2.91 2.38 3.56"/><path d="M6.463 17.203V3.993h2.672v5.862l5.394-5.862h3.591l-4.977 5.144 5.244 8.066H14.93l-3.624-6.196-2.171 2.204v3.991zm83.954 100.924v13.21h-2.672v-5.862l-5.394 5.862H78.76l4.977-5.144-5.244-8.066h3.457l3.624 6.196 2.171-2.204v-3.991z"/></svg>